<?xml version="1.0" encoding="UTF-8" standalone="no"?>
<svg
   width="109"
   height="57"
   viewBox="0 0 109 57"
   fill="none"
   version="1.1"
   id="svg3"
   sodipodi:docname="footer_logo.svg"
   inkscape:version="1.4 (86a8ad7, 2024-10-11)"
   xmlns:inkscape="http://www.inkscape.org/namespaces/inkscape"
   xmlns:sodipodi="http://sodipodi.sourceforge.net/DTD/sodipodi-0.dtd"
   xmlns="http://www.w3.org/2000/svg"
   xmlns:svg="http://www.w3.org/2000/svg">
  <sodipodi:namedview
     id="namedview3"
     pagecolor="#ffffff"
     bordercolor="#000000"
     borderopacity="0.25"
     inkscape:showpageshadow="2"
     inkscape:pageopacity="0.0"
     inkscape:pagecheckerboard="0"
     inkscape:deskcolor="#d1d1d1"
     inkscape:zoom="7.440367"
     inkscape:cx="54.365598"
     inkscape:cy="23.453144"
     inkscape:window-width="1366"
     inkscape:window-height="705"
     inkscape:window-x="-8"
     inkscape:window-y="-8"
     inkscape:window-maximized="1"
     inkscape:current-layer="svg3" />
  <path
     d="M68 42.39C68 41.3438 68.9096 40.53 69.9493 40.6459L101.251 44.136C105.227 44.5794 108.591 41.226 108.161 37.2483C107.713 33.1161 103.434 30.5622 99.5844 32.1306L70.4171 44.0151C69.2629 44.4854 68 43.6363 68 42.39Z"
     fill="url(#paint0_linear_2261_128)"
     id="path1" />
  <path
     d="M 0.9,45 13.635,13.365 H 18.63 L 31.32,45 h -6.525 l -9.81,-25.965 h 2.25 L 7.29,45 Z m 6.75,-5.895 v -5.13 h 17.01 v 5.13 z M 34.778,45 V 12.465 h 5.895 V 45 Z m 21.5131,0.45 c -2.28,0 -4.305,-0.48 -6.075,-1.44 -1.77,-0.99 -3.18,-2.34 -4.23,-4.05 -1.02,-1.71 -1.53,-3.66 -1.53,-5.85 0,-2.16 0.495,-4.08 1.485,-5.76 1.02,-1.71 2.4,-3.06 4.14,-4.05 1.74,-1.02 3.675,-1.53 5.805,-1.53 2.1,0 3.945,0.48 5.535,1.44 1.62,0.93 2.88,2.22 3.78,3.87 0.93,1.62 1.395,3.465 1.395,5.535 0,0.39 -0.03,0.795 -0.09,1.215 -0.03,0.39 -0.105,0.84 -0.225,1.35 l -18.27,0.045 v -4.41 l 15.525,-0.045 -2.385,1.845 c -0.06,-1.29 -0.3,-2.37 -0.72,-3.24 -0.39,-0.87 -0.975,-1.53 -1.755,-1.98 -0.75,-0.48 -1.68,-0.72 -2.79,-0.72 -1.17,0 -2.19,0.27 -3.06,0.81 -0.87,0.51 -1.545,1.245 -2.025,2.205 -0.45,0.93 -0.675,2.04 -0.675,3.33 0,1.32 0.24,2.475 0.72,3.465 0.51,0.96 1.23,1.71 2.16,2.25 0.93,0.51 2.01,0.765 3.24,0.765 1.11,0 2.115,-0.18 3.015,-0.54 0.9,-0.39 1.68,-0.96 2.34,-1.71 l 3.465,3.465 c -1.05,1.23 -2.34,2.16 -3.87,2.79 -1.5,0.63 -3.135,0.945 -4.905,0.945 z M 91.3918,45 82.3018,30.915 h -0.9 l -12.33,-17.55 h 7.245 l 9.045,13.275 h 0.9 L 98.5468,45 Z m -22.86,0 11.835,-16.92 4.5,3.015 L 75.4618,45 Z m 18.045,-15.03 -4.5,-3.015 9,-13.59 h 6.93 z"
     fill="white"
     id="path2"
     style="display:none;fill:#000000" />
  <defs
     id="defs3">
    <linearGradient
       id="paint0_linear_2261_128"
       x1="219.1"
       y1="39.9983"
       x2="202.599"
       y2="91.4037"
       gradientUnits="userSpaceOnUse">
      <stop
         stop-color="#DF8908"
         id="stop2" />
      <stop
         offset="1"
         stop-color="#B415FF"
         id="stop3" />
    </linearGradient>
  </defs>
  <text
     xml:space="preserve"
     style="font-style:italic;font-variant:normal;font-weight:normal;font-stretch:normal;font-size:30.4272px;font-family:'Segoe UI';-inkscape-font-specification:'Segoe UI, Italic';font-variant-ligatures:normal;font-variant-caps:normal;font-variant-numeric:normal;font-variant-east-asian:normal;text-align:start;writing-mode:lr-tb;direction:ltr;text-anchor:start;fill:#ffffff;stroke-width:1.07322"
     x="2.8293798"
     y="35.985527"
     id="text3"
     transform="scale(0.85719419,1.1665968)"><tspan
       sodipodi:role="line"
       id="tspan3"
       x="2.8293798"
       y="35.985527"
       style="font-style:italic;font-variant:normal;font-weight:normal;font-stretch:normal;font-size:30.4272px;font-family:'Segoe UI';-inkscape-font-specification:'Segoe UI, Italic';font-variant-ligatures:normal;font-variant-caps:normal;font-variant-numeric:normal;font-variant-east-asian:normal;fill:#ffffff;stroke-width:1.07322">Santhosh</tspan></text>
</svg>
