<?xml version="1.0" encoding="UTF-8"?>
<svg version="1.1" xmlns="http://www.w3.org/2000/svg" width="1366" height="642">
<path d="M0 0 C450.78 0 901.56 0 1366 0 C1366 211.86 1366 423.72 1366 642 C915.22 642 464.44 642 0 642 C0 430.14 0 218.28 0 0 Z " fill="#40D4AD" transform="translate(0,0)"/>
<path d="M0 0 C1.21996906 -0.00583219 2.43993811 -0.01166439 3.69687593 -0.01767331 C5.05263085 -0.01404002 6.40838527 -0.01021564 7.76413918 -0.00622082 C9.20287259 -0.00924051 10.6416044 -0.01312907 12.08033335 -0.01781338 C16.03888909 -0.02812574 19.99735459 -0.02590335 23.95591784 -0.02163279 C28.22322417 -0.01917141 32.49050845 -0.02817242 36.75780678 -0.03567028 C45.11999818 -0.04843591 53.4821575 -0.05020864 61.844357 -0.04787002 C68.64007646 -0.04608871 75.43578615 -0.04783248 82.23150444 -0.05209446 C83.6809946 -0.05298724 83.6809946 -0.05298724 85.1597674 -0.05389806 C87.12271988 -0.05510979 89.08567235 -0.05632392 91.04862483 -0.05754044 C109.46786855 -0.06842325 127.88709398 -0.06625004 146.30633874 -0.06015559 C163.16352186 -0.0549863 180.02064719 -0.0662409 196.87781887 -0.08525381 C214.1784698 -0.10461761 231.47909339 -0.11289074 248.77975523 -0.10913056 C258.49605944 -0.10721623 268.21231446 -0.10972855 277.92860985 -0.1238451 C286.20056866 -0.13574134 294.47244801 -0.1371836 302.74440788 -0.12505493 C306.96588612 -0.11915375 311.18721891 -0.11810091 315.40868759 -0.13005733 C319.27261844 -0.14087403 323.13628165 -0.13786332 327.00019975 -0.12379565 C328.39856247 -0.12113704 329.79694587 -0.12355164 331.19528835 -0.13153151 C333.0956792 -0.14162426 334.99614537 -0.13143259 336.89653015 -0.12025452 C338.48012898 -0.12033704 338.48012898 -0.12033704 340.0957197 -0.12042123 C343.70415967 0.33378197 346.02923396 1.26553289 349.07410622 3.25447559 C351.7604169 7.47458484 351.35642896 12.25633984 351.33416843 17.10171986 C351.33797411 17.9974524 351.34177978 18.89318495 351.34570077 19.8160609 C351.3560497 22.83310676 351.35210429 25.84996564 351.34826088 28.86702442 C351.35271146 31.0456727 351.35802491 33.22431936 351.3641296 35.40296364 C351.37834108 41.40205721 351.3799723 47.40109905 351.37953269 53.40020704 C351.38117808 59.86518048 351.39423919 66.33013243 351.40572548 72.79509449 C351.42787623 86.19926688 351.4359834 99.60342671 351.44076048 113.00761499 C351.44102166 113.73616696 351.44128283 114.46471894 351.44155192 115.21534824 C351.4418122 115.94534259 351.44207247 116.67533693 351.44234063 117.42745231 C351.44542183 125.51372632 351.45192607 133.59999706 351.45855331 141.68626881 C351.47819986 166.10218617 351.49460564 190.51809999 351.49742985 214.93402576 C351.49752391 215.71501981 351.49761797 216.49601385 351.49771488 217.30067439 C351.49809337 220.46577785 351.49845736 223.63088132 351.49881786 226.79598479 C351.49908958 229.17830725 351.49936626 231.5606297 351.49964333 233.94295216 C351.49973135 234.73016087 351.49981937 235.51736959 351.49991006 236.32843311 C351.50281682 261.07432352 351.52492499 285.82013589 351.56116676 310.56599903 C351.60186664 338.35666809 351.62558821 366.14728396 351.62588936 393.93798447 C351.62598619 396.89955044 351.62615291 399.86111641 351.62636948 402.82268238 C351.62641359 403.55191622 351.6264577 404.28115005 351.62650316 405.03248189 C351.62762428 416.78155529 351.64505116 428.53055067 351.6681888 440.27959892 C351.69099804 452.08049432 351.6948529 463.88127496 351.6806395 475.68218446 C351.67344326 482.07873066 351.67444477 488.47500571 351.69705009 494.87152195 C351.71752685 500.72155015 351.71514589 506.57109676 351.69417525 512.42111909 C351.69065867 514.54285161 351.69568105 516.6646181 351.70987969 518.78630602 C351.72788219 521.66054035 351.71536662 524.53305146 351.69493198 527.40723133 C351.70749536 528.23976142 351.72005873 529.07229151 351.73300281 529.93004978 C351.66650996 534.2697428 351.47406218 535.77147731 348.59780461 539.24492836 C347.76498414 539.90807895 346.93216367 540.57122953 346.07410622 541.25447559 C345.74410622 541.58447559 345.41410622 541.91447559 345.07410622 542.25447559 C343.20754059 542.35658703 341.3370626 542.38740371 339.46771049 542.39148998 C338.2426477 542.39656453 337.0175849 542.40163907 335.75539899 542.40686738 C334.37833806 542.40746915 333.00127708 542.4079682 331.62421608 542.40837574 C330.17498555 542.4123877 328.72575615 542.41682547 327.27652812 542.4216553 C323.27508737 542.4336565 319.27365869 542.43927743 315.27220345 542.44383645 C310.96396525 542.44977919 306.65574161 542.46139235 302.3475132 542.47212696 C291.93328674 542.49668197 281.51905545 542.51128288 271.10480893 542.52418703 C268.16516121 542.52789678 265.22551398 542.53187019 262.28586674 542.53593969 C244.04582692 542.56117457 225.80578639 542.58323596 207.56573296 542.59566784 C203.33805526 542.59859772 199.1103776 542.60155936 194.88269997 542.60457325 C193.83188062 542.6053193 192.78106127 542.60606535 191.69839892 542.60683401 C174.66895861 542.61949242 157.6396226 542.65272004 140.61023107 542.69437508 C123.14131285 542.73675623 105.67244808 542.76035848 88.20347857 542.7655884 C78.38929993 542.76900693 68.57528424 542.78081386 58.76115608 542.81369114 C50.40416411 542.84164044 42.04736848 542.8527136 33.6903334 542.84149568 C29.42433878 542.83629577 25.15875566 542.8392815 20.89282036 542.86396122 C16.98920734 542.88635681 13.08630367 542.88579034 9.18267903 542.86675735 C7.76875692 542.86394361 6.35478771 542.86963187 4.94094172 542.88457029 C-5.65656554 542.98971574 -5.65656554 542.98971574 -8.85705233 541.13587976 C-10.23575783 539.77897549 -10.23575783 539.77897549 -11.92589378 537.25447559 C-12.25589378 536.92447559 -12.58589378 536.59447559 -12.92589378 536.25447559 C-13.02764631 533.45626512 -13.06318485 530.68260493 -13.05732155 527.88380527 C-13.05937418 526.99099973 -13.06142682 526.09819419 -13.06354165 525.17833394 C-13.0692553 522.14720284 -13.06774907 519.11611655 -13.06633568 516.08498096 C-13.06891682 513.90566144 -13.07192927 511.72634239 -13.07533908 509.54702401 C-13.08344188 503.52750152 -13.08520047 497.50799094 -13.08593655 491.48846364 C-13.08778144 485.00843085 -13.0953259 478.52840432 -13.10207176 472.04837513 C-13.11665908 457.12451143 -13.12218475 442.20064899 -13.12676371 427.27677944 C-13.12909745 419.90612499 -13.13269985 412.53547131 -13.13645908 405.16481747 C-13.14929675 379.94731241 -13.16001564 354.72980779 -13.16346169 329.51229954 C-13.16368332 327.92838699 -13.1639051 326.34447444 -13.16412704 324.7605619 C-13.16434768 323.17276181 -13.16456816 321.58496172 -13.16478848 319.99716163 C-13.16523104 316.81161133 -13.16567816 313.62606104 -13.16612816 310.44051075 C-13.16623755 309.65067565 -13.16634694 308.86084054 -13.16645965 308.04707104 C-13.17009103 282.43123276 -13.18601306 256.81542276 -13.20931852 231.19959531 C-13.23389812 204.13395565 -13.24763366 177.06833217 -13.2488296 150.00268102 C-13.24900106 147.03318897 -13.2492165 144.06369694 -13.24946404 141.0942049 C-13.2495198 140.36300191 -13.24957557 139.63179892 -13.24963303 138.87843827 C-13.25078514 127.09569252 -13.26182074 115.31297571 -13.27635109 103.53023974 C-13.29069649 91.69303172 -13.29371107 79.8558641 -13.28591111 68.01864973 C-13.2819916 61.60194251 -13.28299738 55.18533299 -13.29696846 48.76863766 C-13.30962971 42.90005064 -13.30857874 37.03163552 -13.29637775 31.16304901 C-13.29440718 29.03446943 -13.29756124 26.90587799 -13.30622211 24.77731511 C-13.31721503 21.89416844 -13.30989778 19.01163914 -13.29783058 16.12851048 C-13.30542578 15.29323265 -13.31302097 14.45795483 -13.32084632 13.59736556 C-13.27922302 9.02197663 -12.97788529 5.91380427 -9.92589378 2.25447559 C-6.73003378 -0.02589689 -3.85568247 0.00316657 0 0 Z " fill="#008080" transform="translate(513.9258937835693,51.745524406433105)"/>
<path d="M0 0 C0.74692096 -0.00538554 1.49384193 -0.01077108 2.26339686 -0.01631981 C4.74979421 -0.0305522 7.2356556 -0.02350754 9.72207642 -0.01637268 C11.51144334 -0.02207877 13.30080662 -0.02904395 15.09016418 -0.03717041 C19.93942549 -0.05509163 24.78850574 -0.05393524 29.6377902 -0.04822803 C33.6908767 -0.04513434 37.74392851 -0.05123071 41.79701006 -0.05726677 C51.3617426 -0.07130731 60.92638582 -0.06975493 70.49111938 -0.05836487 C80.34720307 -0.04688696 90.20301455 -0.06095493 100.05906236 -0.08776134 C108.53148033 -0.10993889 117.00381299 -0.116551 125.47625792 -0.11068493 C130.53188001 -0.10731873 135.58732767 -0.10970794 140.64292526 -0.12693596 C145.39876056 -0.14243549 150.15419362 -0.13841619 154.9100132 -0.11963081 C156.65102501 -0.1159531 158.39206681 -0.11902947 160.13305092 -0.1295166 C170.750844 -0.18856982 178.47386171 0.59698663 187.52139282 6.51268005 C192.61083616 11.83346172 195.53167914 17.51989195 195.83389282 24.95018005 C195.42169952 33.05664841 192.02723456 39.7626529 186.27139282 45.38768005 C180.28547792 49.04965152 175.03407896 50.53657496 168.03053284 50.5415802 C167.28773514 50.54596245 166.54493744 50.55034471 165.77963072 50.55485976 C163.28331123 50.56824538 160.78702705 50.57442615 158.29067993 50.58055115 C156.50352824 50.58845247 154.71637815 50.59672144 152.92922974 50.60533142 C147.05241418 50.63155393 141.17559151 50.64686199 135.29873657 50.66111755 C133.27477069 50.66647765 131.25080486 50.67185516 129.22683907 50.67724991 C120.80536866 50.69888137 112.38390018 50.71761657 103.96240902 50.7288723 C91.90011343 50.74510062 79.83814053 50.77824831 67.77596658 50.83527315 C59.29174356 50.87401223 50.80760669 50.89350985 42.32329756 50.89879286 C37.25800218 50.90244164 32.19305095 50.91441215 27.12785149 50.9468956 C22.35809351 50.97704501 17.58888667 50.98326357 12.81905365 50.97151184 C11.0736059 50.97129166 9.32813208 50.97955038 7.58277321 50.99716568 C-2.6491945 51.09476552 -11.61944578 50.9178533 -19.61723423 43.67804527 C-24.78226643 38.33296485 -26.83611084 32.34616431 -27.22860718 25.01268005 C-27.01050868 18.17576618 -24.62326077 12.64674372 -20.08407593 7.53611755 C-14.13583228 2.08467981 -8.0070403 -0.07019935 0 0 Z " fill="#FDFEFE" transform="translate(567.7286071777344,91.61231994628906)"/>
<path d="M0 0 C4.76285326 4.21701795 8.51756484 8.73466058 9.24609375 15.17578125 C9.6174627 22.41184901 8.21214471 29.22334471 3.421875 34.85546875 C-2.7085315 40.4473936 -9.03421001 42.61514241 -17.2890625 42.34375 C-24.00849694 41.49171797 -28.63468814 38.18664682 -32.74609375 32.91015625 C-36.80977729 26.71968507 -38.0180466 20.33695654 -37 13 C-34.83553351 5.44478679 -29.17904779 0.52942366 -22.625 -3.4375 C-14.56536097 -5.16456551 -7.11765442 -4.28013055 0 0 Z " fill="#FAFCFC" transform="translate(814,98)"/>
<path d="M0 0 C0.99 0.66 1.98 1.32 3 2 C4.32 1.34 5.64 0.68 7 0 C7 6.93 7 13.86 7 21 C5.68 20.67 4.36 20.34 3 20 C2.401875 20.33 1.80375 20.66 1.1875 21 C-2.19236246 22.54507998 -4.47147525 21.94514056 -8 21 C-11.30317928 18.21837534 -12.28048879 15.64954449 -12.9375 11.5 C-13.22608443 7.46652928 -12.68581046 5.16541947 -10 2 C-6.31282562 -0.45811625 -4.35654296 -0.31118164 0 0 Z " fill="#E6F2ED" transform="translate(740,421)"/>
<path d="M0 0 C19.47 0 38.94 0 59 0 C58.67 1.65 58.34 3.3 58 5 C39.19 5 20.38 5 1 5 C0.67 3.35 0.34 1.7 0 0 Z " fill="#365557" transform="translate(656,259)"/>
<path d="M0 0 C3.89093611 2.62042636 4.81524581 4.09162521 5.75 8.6875 C5.17682343 17.38340746 -3.46362052 24.89868384 -9 31 C-4.05 31.33 0.9 31.66 6 32 C6 32.99 6 33.98 6 35 C-1.26 35 -8.52 35 -16 35 C-15.01155944 31.04623777 -14.50529348 30.12561657 -11.875 27.3125 C-3.76371597 19.18340584 -3.76371597 19.18340584 0.1875 9 C0.32483785 5.88375675 0.32483785 5.88375675 -2 4 C-4.93071112 3.71638279 -7.15252694 3.5131557 -10 4 C-12.31377147 5.89584109 -12.31377147 5.89584109 -14 8 C-14.99 8 -15.98 8 -17 8 C-16.66032174 4.82966958 -16.00130809 4.00117393 -13.5625 1.8125 C-8.85817093 -1.51495227 -5.53394726 -1.36440424 0 0 Z " fill="#DEEEEE" transform="translate(655,360)"/>
<path d="M0 0 C0.86825912 0.00222061 1.73651825 0.00444122 2.63108826 0.00672913 C3.61202957 0.00680466 4.59297089 0.00688019 5.6036377 0.00695801 C6.6702916 0.01211929 7.7369455 0.01728058 8.83592224 0.02259827 C9.92211349 0.02401321 11.00830475 0.02542816 12.12741089 0.02688599 C15.61230674 0.03250403 19.09713941 0.04505959 22.58201599 0.05775452 C24.93813486 0.06276719 27.29425473 0.0673305 29.65037537 0.07142639 C35.44011063 0.08247933 41.2298088 0.09923501 47.01951599 0.12025452 C47.58201599 2.05775452 47.58201599 2.05775452 48.01951599 4.12025452 C47.01951599 5.12025452 47.01951599 5.12025452 45.03903198 5.24050903 C44.17077286 5.23828842 43.30251373 5.23606781 42.40794373 5.23377991 C41.42700241 5.23370438 40.4460611 5.23362885 39.43539429 5.23355103 C38.36874039 5.22838974 37.30208649 5.22322845 36.20310974 5.21791077 C34.57382286 5.21578835 34.57382286 5.21578835 32.91162109 5.21362305 C29.42672524 5.208005 25.94189257 5.19544944 22.45701599 5.18275452 C20.10089712 5.17774184 17.74477726 5.17317853 15.38865662 5.16908264 C9.59892135 5.15802971 3.80922318 5.14127403 -1.98048401 5.12025452 C-2.54298401 3.18275452 -2.54298401 3.18275452 -2.98048401 1.12025452 C-1.98048401 0.12025452 -1.98048401 0.12025452 0 0 Z " fill="#325859" transform="translate(649.9804840087891,231.87974548339844)"/>
<path d="M0 0 C20.13 0 40.26 0 61 0 C61 1.32 61 2.64 61 4 C41.2 4 21.4 4 1 4 C0.67 2.68 0.34 1.36 0 0 Z " fill="#385355" transform="translate(663,242)"/>
<path d="M0 0 C4.00287738 1.33429246 4.82768168 3.28088029 6.91796875 6.8046875 C8.81918714 10.66203311 9.54769891 14.15774002 8.3125 18.3125 C6.68458811 20.40552957 5.50870936 21.13987108 3 22 C0.04818641 22.3689767 -1.55449175 22.2103789 -4.25 20.9375 C-6.90860697 17.99404228 -7 15.93563428 -7 12 C-5.4437122 7.56292414 -3.00671911 3.60806293 0 0 Z " fill="#F5FAFA" transform="translate(553,502)"/>
<path d="M0 0 C19.8 0 39.6 0 60 0 C60 1.32 60 2.64 60 4 C40.2 4 20.4 4 0 4 C0 2.68 0 1.36 0 0 Z " fill="#3A5254" transform="translate(642,251)"/>
<path d="M0 0 C4.63235294 2.26470588 4.63235294 2.26470588 6 5 C6 6.98 6 8.96 6 11 C0.72 11 -4.56 11 -10 11 C-9.01 12.98 -8.02 14.96 -7 17 C-3.54578685 18.16025399 -3.54578685 18.16025399 0 18 C0.99 17.34 1.98 16.68 3 16 C3.99 16 4.98 16 6 16 C5.06788763 18.33028092 4.30996602 19.75891532 2.3125 21.3125 C-1.15955818 22.34473351 -3.51309922 21.91760547 -7 21 C-9.9375 19.125 -9.9375 19.125 -12 16 C-12.87198439 11.60044238 -13.32107226 7.10559982 -10.85546875 3.17578125 C-7.45908836 0.04824364 -4.45847771 -0.75888982 0 0 Z " fill="#D9EBE7" transform="translate(671,421)"/>
<path d="M0 0 C7.26 0 14.52 0 22 0 C21.13151493 4.34242534 19.90485573 8.12267023 18.25 12.1875 C17.85119629 13.1772583 17.85119629 13.1772583 17.44433594 14.18701172 C15.53525035 18.85733134 13.42909648 23.38471668 11.078125 27.8515625 C9.90627064 30.18677952 8.94041022 32.56348261 8 35 C6.68 35 5.36 35 4 35 C4.62410299 31.2650744 5.69225551 28.08385773 7.21484375 24.62109375 C7.65376953 23.61755859 8.09269531 22.61402344 8.54492188 21.58007812 C9.23424805 20.02450195 9.23424805 20.02450195 9.9375 18.4375 C10.39318359 17.39658203 10.84886719 16.35566406 11.31835938 15.28320312 C13.13758313 11.14133937 14.97633553 7.04732895 17 3 C11.39 3 5.78 3 0 3 C0 2.01 0 1.02 0 0 Z " fill="#D7EBEB" transform="translate(665,360)"/>
<path d="M0 0 C1.2684375 -0.00773437 1.2684375 -0.00773437 2.5625 -0.015625 C5.13478811 0.26468845 6.7803108 0.9551813 9 2.25 C9 3.24 9 4.23 9 5.25 C8.34 5.085 7.68 4.92 7 4.75 C0.07045274 3.58792518 0.07045274 3.58792518 -6.5 5.625 C-8.78730387 9.62778177 -8.80095999 13.74730599 -8 18.25 C-6.86228588 20.59555447 -6.86228588 20.59555447 -5 22.25 C-2.89419357 22.7697133 -2.89419357 22.7697133 -0.625 22.5625 C0.16519531 22.52769531 0.95539062 22.49289062 1.76953125 22.45703125 C4.23286454 22.2283856 6.60319046 21.86853149 9 21.25 C9 22.24 9 23.23 9 24.25 C4.46139393 26.90674502 1.2582423 27.90728029 -4 27.25 C-7.9112866 25.1439226 -10.69308896 23.04609858 -13 19.25 C-13.81764202 13.8948131 -13.92226719 8.89690569 -11.25 4.125 C-7.54706462 1.03922052 -4.83578538 -0.0294865 0 0 Z " fill="#D8ECEC" transform="translate(720,368.75)"/>
<path d="M0 0 C0.79622772 0.00141495 1.59245544 0.0028299 2.41281128 0.00428772 C4.9601413 0.0098928 7.50738397 0.02244611 10.0546875 0.03515625 C11.77994665 0.0401706 13.50520717 0.04473362 15.23046875 0.04882812 C19.46357541 0.05986388 23.69661664 0.07713189 27.9296875 0.09765625 C28.4246875 2.57265625 28.4246875 2.57265625 28.9296875 5.09765625 C16.3896875 5.09765625 3.8496875 5.09765625 -9.0703125 5.09765625 C-9.4003125 3.77765625 -9.7303125 2.45765625 -10.0703125 1.09765625 C-6.89740537 -0.48879732 -3.48205866 -0.02312588 0 0 Z " fill="#325859" transform="translate(673.0703125,267.90234375)"/>
<path d="M0 0 C2.83223403 2.2840597 2.97798242 3.82700476 3.4375 7.4375 C2.92192711 11.63573639 2.2752407 13.31262302 -1 16 C-4.79167237 16.06652057 -6.99612972 15.84195572 -9.9375 13.375 C-11.43699866 10.02317947 -11.45377473 7.63019782 -11 4 C-8.11930897 -0.49387801 -5.1100914 -0.74328602 0 0 Z " fill="#098284" transform="translate(741,424)"/>
<path d="M0 0 C0.99 0.33 1.98 0.66 3 1 C3.33 4.3 3.66 7.6 4 11 C4.99 10.34 5.98 9.68 7 9 C13.13383672 9.2190656 13.13383672 9.2190656 15.70703125 11.5390625 C17.55283201 15.05221803 17.32055915 18.38787287 17.1875 22.25 C17.16719727 23.36761719 17.16719727 23.36761719 17.14648438 24.5078125 C17.11127204 26.33885416 17.05746851 28.16952169 17 30 C16.01 30 15.02 30 14 30 C13.93941406 28.85660156 13.87882813 27.71320313 13.81640625 26.53515625 C13.73201572 25.04425695 13.64736698 23.55337225 13.5625 22.0625 C13.52318359 21.30775391 13.48386719 20.55300781 13.44335938 19.77539062 C13.55961976 16.08055813 13.55961976 16.08055813 12 13 C9.04182893 12.74994614 9.04182893 12.74994614 6 13 C3.15385976 15.84614024 3.54420924 18.80369142 3.375 22.625 C3.33632813 23.33140625 3.29765625 24.0378125 3.2578125 24.765625 C3.16352276 26.50998524 3.08067109 28.25495691 3 30 C2.01 30 1.02 30 0 30 C0 20.1 0 10.2 0 0 Z " fill="#E6F6EF" transform="translate(637,412)"/>
<path d="M0 0 C0.86625 0.495 1.7325 0.99 2.625 1.5 C2.625 2.16 2.625 2.82 2.625 3.5 C1.41263672 3.33951172 1.41263672 3.33951172 0.17578125 3.17578125 C-0.89285156 3.05589844 -1.96148438 2.93601562 -3.0625 2.8125 C-4.11824219 2.68488281 -5.17398438 2.55726563 -6.26171875 2.42578125 C-9.90939171 2.51273958 -11.50230879 3.30146049 -14.375 5.5 C-17.07467727 9.54951591 -16.90937659 12.74905815 -16.375 17.5 C-15.0573228 20.75951728 -14.24938757 22.05217998 -11.125 23.65234375 C-7.98312429 24.62079123 -5.81232321 24.51654496 -2.5625 24.125 C-1.58667969 24.01414062 -0.61085938 23.90328125 0.39453125 23.7890625 C1.49861328 23.64597656 1.49861328 23.64597656 2.625 23.5 C2.295 24.49 1.965 25.48 1.625 26.5 C-3.09306859 28.80149687 -7.41406637 29.04164472 -12.375 27.5 C-16.12853861 25.28425474 -18.75098233 22.56375198 -20.375 18.5 C-20.93965681 13.99007872 -20.93105009 9.84622654 -19.1875 5.625 C-13.78514646 -0.7087938 -7.96588837 -3.54039483 0 0 Z " fill="#E3F1EC" transform="translate(630.375,414.5)"/>
<path d="M0 0 C2.5625 1.5625 2.5625 1.5625 4 4 C4 7.78814147 3.8367392 10.03929943 1.3125 12.9375 C-1.73602877 14.33817538 -3.67926952 14.4842732 -7 14 C-9.375 12.4375 -9.375 12.4375 -11 10 C-11.42213381 6.56262469 -11.60856522 4.17909511 -10 1.0625 C-6.75462393 -0.66160604 -3.53203487 -0.62413468 0 0 Z " fill="#ECF5F5" transform="translate(700,360)"/>
<path d="M0 0 C2.30362003 2.09568265 3.79651306 3.77012181 4.31616211 6.91088867 C4.39314764 9.05865878 4.34975582 11.16583156 4.25 13.3125 C4.23195313 14.05306641 4.21390625 14.79363281 4.1953125 15.55664062 C4.14847337 17.3716571 4.07673789 19.18600166 4 21 C3.01 21 2.02 21 1 21 C0.93941406 19.94039063 0.87882813 18.88078125 0.81640625 17.7890625 C0.73199873 16.40102779 0.64735083 15.01300768 0.5625 13.625 C0.52318359 12.92632812 0.48386719 12.22765625 0.44335938 11.5078125 C0.25719866 7.62639508 0.25719866 7.62639508 -1 4 C-4.41656024 3.83322718 -4.41656024 3.83322718 -8 4 C-10.84614024 6.84614024 -10.45579076 9.80369142 -10.625 13.625 C-10.66367187 14.33140625 -10.70234375 15.0378125 -10.7421875 15.765625 C-10.83647724 17.50998524 -10.91932891 19.25495691 -11 21 C-11.99 21 -12.98 21 -14 21 C-14 14.4 -14 7.8 -14 1 C-12.68 1.33 -11.36 1.66 -10 2 C-6.26744552 -0.48836965 -4.41559065 -0.54226552 0 0 Z " fill="#CFF1F2" transform="translate(719,421)"/>
<path d="M0 0 C2.30362003 2.09568265 3.79651306 3.77012181 4.31616211 6.91088867 C4.39314764 9.05865878 4.34975582 11.16583156 4.25 13.3125 C4.23195313 14.05306641 4.21390625 14.79363281 4.1953125 15.55664062 C4.14847337 17.3716571 4.07673789 19.18600166 4 21 C3.01 21 2.02 21 1 21 C0.93941406 19.94039063 0.87882813 18.88078125 0.81640625 17.7890625 C0.73199873 16.40102779 0.64735083 15.01300768 0.5625 13.625 C0.52318359 12.92632812 0.48386719 12.22765625 0.44335938 11.5078125 C0.25719866 7.62639508 0.25719866 7.62639508 -1 4 C-4.41656024 3.83322718 -4.41656024 3.83322718 -8 4 C-10.84614024 6.84614024 -10.45579076 9.80369142 -10.625 13.625 C-10.66367187 14.33140625 -10.70234375 15.0378125 -10.7421875 15.765625 C-10.83647724 17.50998524 -10.91932891 19.25495691 -11 21 C-11.99 21 -12.98 21 -14 21 C-14 14.4 -14 7.8 -14 1 C-12.68 1.33 -11.36 1.66 -10 2 C-6.26744552 -0.48836965 -4.41559065 -0.54226552 0 0 Z " fill="#CFF1F2" transform="translate(696,421)"/>
<path d="M0 0 C1.9375 0.75 1.9375 0.75 3.9375 2.75 C4.203125 5.28125 4.203125 5.28125 4.1875 8.25 C4.19265625 9.2296875 4.1978125 10.209375 4.203125 11.21875 C3.9375 13.75 3.9375 13.75 1.9375 15.75 C-1.0625 16 -1.0625 16 -4.0625 15.75 C-4.7225 15.09 -5.3825 14.43 -6.0625 13.75 C-5.79736085 11.40793749 -5.45637788 9.07387947 -5.0625 6.75 C-5.10375 5.821875 -5.145 4.89375 -5.1875 3.9375 C-5.14625 3.215625 -5.105 2.49375 -5.0625 1.75 C-2.0625 -0.25 -2.0625 -0.25 0 0 Z " fill="#DAEBE2" transform="translate(586.0625,498.25)"/>
<path d="M0 0 C1.875 0.6875 1.875 0.6875 2.875 1.6875 C2.875 4.02083333 2.875 6.35416667 2.875 8.6875 C3.08125 9.615625 3.2875 10.54375 3.5 11.5 C3.62375 12.221875 3.7475 12.94375 3.875 13.6875 C1.875 15.6875 1.875 15.6875 -1.125 15.9375 C-4.125 15.6875 -4.125 15.6875 -6.125 13.6875 C-5.85986085 11.34543749 -5.51887788 9.01137947 -5.125 6.6875 C-5.16625 5.759375 -5.2075 4.83125 -5.25 3.875 C-5.20875 3.153125 -5.1675 2.43125 -5.125 1.6875 C-2.125 -0.3125 -2.125 -0.3125 0 0 Z " fill="#DDEFE9" transform="translate(598.125,498.3125)"/>
<path d="M0 0 C1.8125 1.125 1.8125 1.125 3 3 C3.04254356 4.99954746 3.04080783 7.00041636 3 9 C3.89831016 11.30230766 3.89831016 11.30230766 5 13 C4.113125 12.690625 3.22625 12.38125 2.3125 12.0625 C-0.87315082 10.96143303 -0.87315082 10.96143303 -3.75 10.5 C-6 10 -6 10 -8 8 C-8.36487512 5.15397406 -8.40199375 3.6135694 -6.8125 1.1875 C-4.35092224 -0.42525784 -2.88934264 -0.4334014 0 0 Z " fill="#333333" transform="translate(801,110)"/>
<path d="M0 0 C0.66 0 1.32 0 2 0 C2 0.66 2 1.32 2 2 C6.95 1.67 11.9 1.34 17 1 C17.33 1.99 17.66 2.98 18 4 C12.72 4 7.44 4 2 4 C2.99 5.98 3.98 7.96 5 10 C8.45421315 11.16025399 8.45421315 11.16025399 12 11 C12.99 10.34 13.98 9.68 15 9 C15.99 9 16.98 9 18 9 C17.06788763 11.33028092 16.30996602 12.75891532 14.3125 14.3125 C10.84044182 15.34473351 8.48690078 14.91760547 5 14 C2.0625 12 2.0625 12 0 9 C-0.39834576 5.95112282 -0.29945877 3.05447943 0 0 Z " fill="#F9FBF9" transform="translate(659,428)"/>
<path d="M0 0 C4.66666667 0 9.33333333 0 14 0 C14.66 1.32 15.32 2.64 16 4 C15 5 15 5 11.9375 5.0625 C10.968125 5.041875 9.99875 5.02125 9 5 C9.33 5.66 9.66 6.32 10 7 C11.98 7 13.96 7 16 7 C15.67 7.66 15.34 8.32 15 9 C13.02 9 11.04 9 9 9 C8.67 8.01 8.34 7.02 8 6 C7.34 6 6.68 6 6 6 C5.67 6.99 5.34 7.98 5 9 C3.35 9 1.7 9 0 9 C-0.33 8.34 -0.66 7.68 -1 7 C1.475 7.495 1.475 7.495 4 8 C4 7.01 4 6.02 4 5 C2.35 4.67 0.7 4.34 -1 4 C-0.67 2.68 -0.34 1.36 0 0 Z " fill="#9E999B" transform="translate(568,114)"/>
<path d="M0 0 C8.25 0 16.5 0 25 0 C25 1.32 25 2.64 25 4 C16.75 4 8.5 4 0 4 C0 2.68 0 1.36 0 0 Z " fill="#3E4E50" transform="translate(667,223)"/>
<path d="M0 0 C3.29159316 -0.05790353 6.58305603 -0.09356261 9.875 -0.125 C10.81214844 -0.14175781 11.74929688 -0.15851563 12.71484375 -0.17578125 C13.61074219 -0.18222656 14.50664063 -0.18867188 15.4296875 -0.1953125 C16.25710449 -0.20578613 17.08452148 -0.21625977 17.93701172 -0.22705078 C20 0 20 0 22 2 C21.44444444 6.55555556 21.44444444 6.55555556 20 8 C18.33382885 8.04063832 16.66611905 8.042721 15 8 C15 7.01 15 6.02 15 5 C16.32 5 17.64 5 19 5 C19 4.34 19 3.68 19 3 C13.06 3 7.12 3 1 3 C0.67 2.01 0.34 1.02 0 0 Z " fill="#D9EBEB" transform="translate(690,512)"/>
<path d="M0 0 C1.29550781 -0.02126953 1.29550781 -0.02126953 2.6171875 -0.04296875 C5.2491288 0.19890748 6.86480544 0.85766459 9.125 2.1875 C9.125 3.1775 9.125 4.1675 9.125 5.1875 C8.465 5.0225 7.805 4.8575 7.125 4.6875 C3.38835437 4.06472573 -0.11376524 3.51748247 -3.875 4.1875 C-8.03667277 7.26351901 -9.60482218 10.22225941 -10.875 15.1875 C-11.205 15.1875 -11.535 15.1875 -11.875 15.1875 C-12.66012397 7.17923554 -12.66012397 7.17923554 -9.5 3.1875 C-6.00643343 0.525735 -4.32439417 0.03208008 0 0 Z " fill="#EAF4F4" transform="translate(719.875,368.8125)"/>
<path d="M0 0 C7.26 0 14.52 0 22 0 C20.80612245 5.96938776 20.80612245 5.96938776 18 9 C17.34 9 16.68 9 16 9 C16.33 7.02 16.66 5.04 17 3 C11.39 3 5.78 3 0 3 C0 2.01 0 1.02 0 0 Z " fill="#F0F8F8" transform="translate(665,360)"/>
<path d="M0 0 C0.66 0 1.32 0 2 0 C2.66 1.98 3.32 3.96 4 6 C4.66 4.68 5.32 3.36 6 2 C6.99 2.33 7.98 2.66 9 3 C9.33 3.99 9.66 4.98 10 6 C10.99 4.02 11.98 2.04 13 0 C14.65 0 16.3 0 18 0 C18 3.63 18 7.26 18 11 C17.34 11 16.68 11 16 11 C15.67 8.69 15.34 6.38 15 4 C14.54625 4.78375 14.0925 5.5675 13.625 6.375 C12 9 12 9 10 11 C9.01 9.35 8.02 7.7 7 6 C6.34 7.65 5.68 9.3 5 11 C4.34 11 3.68 11 3 11 C2.49384702 9.73160474 1.99530901 8.46016898 1.5 7.1875 C1.2215625 6.47980469 0.943125 5.77210938 0.65625 5.04296875 C0 3 0 3 0 0 Z " fill="#C5E1D3" transform="translate(727,525)"/>
<path d="M0 0 C0.66 0 1.32 0 2 0 C2.99 2.97 3.98 5.94 5 9 C6.32 6.03 7.64 3.06 9 0 C12.10551666 3.10551666 12.81323934 4.89198233 14 9 C14.66 7.02 15.32 5.04 16 3 C17.60080151 7.00200378 16.29279692 10.04556236 15 14 C14.01 13.67 13.02 13.34 12 13 C10.8125 9.4375 10.8125 9.4375 10 6 C9.566875 6.86625 9.566875 6.86625 9.125 7.75 C8.08333333 9.83333333 7.04166667 11.91666667 6 14 C5.34 14 4.68 14 4 14 C2.68 9.38 1.36 4.76 0 0 Z " fill="#74BBAF" transform="translate(1149,570)"/>
<path d="M0 0 C4.875 0.875 4.875 0.875 6 2 C6.04063832 3.66617115 6.042721 5.33388095 6 7 C2.69005287 8.65497356 -0.99123 8.10084335 -4.625 8.0625 C-5.42679688 8.05798828 -6.22859375 8.05347656 -7.0546875 8.04882812 C-9.03649006 8.03703168 -11.01825433 8.01909605 -13 8 C-12.67 7.01 -12.34 6.02 -12 5 C-7.05 5 -2.1 5 3 5 C3 4.34 3 3.68 3 3 C2.01 3 1.02 3 0 3 C0 2.01 0 1.02 0 0 Z " fill="#DBEDED" transform="translate(703,502)"/>
<path d="M0 0 C0.10957031 0.69867188 0.21914063 1.39734375 0.33203125 2.1171875 C0.49058594 3.02726562 0.64914062 3.93734375 0.8125 4.875 C0.96332031 5.77992188 1.11414063 6.68484375 1.26953125 7.6171875 C1.83051301 10.34412478 1.83051301 10.34412478 5 12 C8.75698557 12.37569856 9.75366476 12.1642235 13 10 C13 10.66 13 11.32 13 12 C13.66 12 14.32 12 15 12 C14.67 12.99 14.34 13.98 14 15 C13.01 15 12.02 15 11 15 C9.576875 15.3403125 9.576875 15.3403125 8.125 15.6875 C5 16 5 16 2.3125 14.9375 C-0.57077094 12.52178651 -1.68890006 10.51926827 -3 7 C-3.1875 3.625 -3.1875 3.625 -3 1 C-1 0 -1 0 0 0 Z " fill="#DAF3F4" transform="translate(730,427)"/>
<path d="M0 0 C0.66 0 1.32 0 2 0 C2 3.96 2 7.92 2 12 C-0.33294775 12.04241723 -2.66702567 12.04092937 -5 12 C-6 11 -6 11 -6.1875 8.0625 C-6 5 -6 5 -4 3 C-3.01 3 -2.02 3 -1 3 C-0.67 2.01 -0.34 1.02 0 0 Z " fill="#C7E2CE" transform="translate(625,524)"/>
<path d="M0 0 C1.5778125 -0.0309375 1.5778125 -0.0309375 3.1875 -0.0625 C6 0 6 0 8 2 C8.1953125 4.1640625 8.1953125 4.1640625 8.125 6.625 C8.10695313 7.44226563 8.08890625 8.25953125 8.0703125 9.1015625 C8.04710937 9.72804688 8.02390625 10.35453125 8 11 C7.34 11 6.68 11 6 11 C5.67 8.03 5.34 5.06 5 2 C3.68 2.33 2.36 2.66 1 3 C0.67 5.64 0.34 8.28 0 11 C-0.66 11 -1.32 11 -2 11 C-2.33 8.03 -2.66 5.06 -3 2 C-4.32 2.33 -5.64 2.66 -7 3 C-7.33 5.64 -7.66 8.28 -8 11 C-8.33 11 -8.66 11 -9 11 C-9 7.37 -9 3.74 -9 0 C-4.99994302 -1.00001425 -3.82594866 -0.81984614 0 0 Z " fill="#DAEBDC" transform="translate(792,503)"/>
<path d="M0 0 C1.670625 0.061875 1.670625 0.061875 3.375 0.125 C3.5 6.875 3.5 6.875 2.375 9.125 C-0.5 9.25 -0.5 9.25 -3.625 9.125 C-5.625 7.125 -5.625 7.125 -5.875 4.625 C-5.45054733 0.38047335 -4.12667778 0.14229923 0 0 Z " fill="#D8D8DA" transform="translate(608.625,113.875)"/>
<path d="M0 0 C0.33 0 0.66 0 1 0 C1 2.64 1 5.28 1 8 C1.66 8 2.32 8 3 8 C3 7.34 3 6.68 3 6 C4.75 4.4921875 4.75 4.4921875 7 2.875 C7.7425 2.33617187 8.485 1.79734375 9.25 1.2421875 C9.8275 0.83226562 10.405 0.42234375 11 0 C9.84826645 2.46800047 8.95216435 4.04783565 7 6 C7.34033435 9.40334347 8.96662226 11.34776816 11 14 C11 14.66 11 15.32 11 16 C10.34 16 9.68 16 9 16 C5 11.52941176 5 11.52941176 5 9 C3.68 9.33 2.36 9.66 1 10 C1 11.98 1 13.96 1 16 C0.34 16 -0.32 16 -1 16 C-1.02685095 13.52076199 -1.04676547 11.0418116 -1.0625 8.5625 C-1.07506836 7.50192383 -1.07506836 7.50192383 -1.08789062 6.41992188 C-1.09653588 4.61306441 -1.05220011 2.80612397 -1 1 C-0.67 0.67 -0.34 0.34 0 0 Z " fill="#D7EBE3" transform="translate(769,498)"/>
<path d="M0 0 C0 2.97 0 5.94 0 9 C0.66 9.33 1.32 9.66 2 10 C1.34 10 0.68 10 0 10 C0 11.65 0 13.3 0 15 C-0.66 15 -1.32 15 -2 15 C-2 13.35 -2 11.7 -2 10 C-4.31 10 -6.62 10 -9 10 C-3.52830189 0 -3.52830189 0 0 0 Z " fill="#ECF2E8" transform="translate(758,499)"/>
<path d="M0 0 C0.33 0.99 0.66 1.98 1 3 C6.28 3 11.56 3 17 3 C17 3.99 17 4.98 17 6 C10.07 6 3.14 6 -4 6 C-2 2 -2 2 0 0 Z " fill="#F9FCFC" transform="translate(644,389)"/>
<path d="M0 0 C1.134375 0.020625 2.26875 0.04125 3.4375 0.0625 C3.4375 3.0325 3.4375 6.0025 3.4375 9.0625 C1.1275 9.0625 -1.1825 9.0625 -3.5625 9.0625 C-4.92873674 6.33002652 -4.690926 4.08051098 -4.5625 1.0625 C-3.5625 0.0625 -3.5625 0.0625 0 0 Z " fill="#CFCAC8" transform="translate(590.5625,113.9375)"/>
<path d="M0 0 C0.33 0 0.66 0 1 0 C1 3.96 1 7.92 1 12 C-1.31 12 -3.62 12 -6 12 C-6.33 9.69 -6.66 7.38 -7 5 C-4.625 3.9375 -4.625 3.9375 -2 3 C-1.34 3.33 -0.68 3.66 0 4 C0 2.68 0 1.36 0 0 Z " fill="#BEE4DD" transform="translate(813,524)"/>
<path d="M0 0 C2.39105598 2.14926381 3.63278854 3.99036913 4.75 7 C5.01296875 7.680625 5.2759375 8.36125 5.546875 9.0625 C6 11 6 11 5 14 C4.67 12.68 4.34 11.36 4 10 C1.69 10 -0.62 10 -3 10 C-3.66 11.32 -4.32 12.64 -5 14 C-4.46515599 8.65155992 -2.53309233 4.64203897 0 0 Z " fill="#74BBAE" transform="translate(1079,570)"/>
<path d="M0 0 C0.33 0 0.66 0 1 0 C1 3.96 1 7.92 1 12 C-0.98 12 -2.96 12 -5 12 C-5.66 11.34 -6.32 10.68 -7 10 C-6.625 6.875 -6.625 6.875 -6 4 C-2.25 2.875 -2.25 2.875 0 4 C0 2.68 0 1.36 0 0 Z " fill="#CBE9E0" transform="translate(762,524)"/>
<path d="M0 0 C0.99 0 1.98 0 3 0 C3 6.93 3 13.86 3 21 C2.01 21 1.02 21 0 21 C0 14.07 0 7.14 0 0 Z " fill="#E7ECD3" transform="translate(753,421)"/>
<path d="M0 0 C2.875 -0.125 2.875 -0.125 6 0 C6.66 0.66 7.32 1.32 8 2 C7.44444444 6.55555556 7.44444444 6.55555556 6 8 C4.33382885 8.04063832 2.66611905 8.042721 1 8 C0.67 8.99 0.34 9.98 0 11 C0 7.37 0 3.74 0 0 Z " fill="#D4E8DA" transform="translate(779,528)"/>
<path d="M0 0 C0.66 0 1.32 0 2 0 C2 1.65 2 3.3 2 5 C2.94875 4.95875 3.8975 4.9175 4.875 4.875 C8 5 8 5 10 7 C10.1953125 9.1640625 10.1953125 9.1640625 10.125 11.625 C10.10695313 12.44226563 10.08890625 13.25953125 10.0703125 14.1015625 C10.03550781 15.04128906 10.03550781 15.04128906 10 16 C9.34 16 8.68 16 8 16 C7.67 13.03 7.34 10.06 7 7 C5.68 7.33 4.36 7.66 3 8 C2.67 10.64 2.34 13.28 2 16 C1.34 16 0.68 16 0 16 C0 10.72 0 5.44 0 0 Z " fill="#D6E9D6" transform="translate(814,498)"/>
<path d="M0 0 C0.66 0 1.32 0 2 0 C2 3.63 2 7.26 2 11 C0.00045254 11.04254356 -2.00041636 11.04080783 -4 11 C-5 10 -5 10 -5.0625 6.9375 C-5.041875 5.968125 -5.02125 4.99875 -5 4 C-3.35 3.67 -1.7 3.34 0 3 C0 2.01 0 1.02 0 0 Z " fill="#67BFB3" transform="translate(1277,594)"/>
<path d="M0 0 C3.53571429 0.53571429 3.53571429 0.53571429 5 2 C4.71269945 4.33944736 4.38063221 6.6739143 4 9 C1.625 9.125 1.625 9.125 -1 9 C-1.66 8.34 -2.32 7.68 -3 7 C-2.67028521 3.70285207 -2.3773161 2.3773161 0 0 Z " fill="#108888" transform="translate(695,362)"/>
<path d="M0 0 C1.4540625 0.0309375 1.4540625 0.0309375 2.9375 0.0625 C2.9375 3.0325 2.9375 6.0025 2.9375 9.0625 C1.9475 9.5575 1.9475 9.5575 0.9375 10.0625 C0.9375 9.4025 0.9375 8.7425 0.9375 8.0625 C-0.7125 7.7325 -2.3625 7.4025 -4.0625 7.0625 C-4.10504356 5.06295254 -4.10330783 3.06208364 -4.0625 1.0625 C-3.0625 0.0625 -3.0625 0.0625 0 0 Z " fill="#66C0B1" transform="translate(1157.0625,596.9375)"/>
<path d="M0 0 C2.97 0 5.94 0 9 0 C9 0.33 9 0.66 9 1 C6.69 1 4.38 1 2 1 C2 2.32 2 3.64 2 5 C2.78375 4.95875 3.5675 4.9175 4.375 4.875 C7 5 7 5 9 7 C9.25 10 9.25 10 9 13 C7 15 7 15 3.875 15.125 C2.451875 15.063125 2.451875 15.063125 1 15 C0.67 14.34 0.34 13.68 0 13 C1.98 12.67 3.96 12.34 6 12 C6.33 10.35 6.66 8.7 7 7 C4.69 7 2.38 7 0 7 C0 4.69 0 2.38 0 0 Z " fill="#E0F2EB" transform="translate(728,499)"/>
<path d="M0 0 C1.32 0.66 2.64 1.32 4 2 C3.57405412 3.44096586 3.13373367 4.87768712 2.6875 6.3125 C2.44386719 7.11300781 2.20023438 7.91351563 1.94921875 8.73828125 C0.93781576 11.14816739 0.07163426 12.41941979 -2 14 C-2.99 14 -3.98 14 -5 14 C-3.45730076 9.27934033 -1.92205381 4.58335908 0 0 Z " fill="#D2E9E9" transform="translate(680,367)"/>
<path d="M0 0 C1.45792884 -0.05399736 2.91642712 -0.09279177 4.375 -0.125 C5.18710937 -0.14820313 5.99921875 -0.17140625 6.8359375 -0.1953125 C9 0 9 0 11 2 C10.44444444 6.55555556 10.44444444 6.55555556 9 8 C7.33382885 8.04063832 5.66611905 8.042721 4 8 C4.33 7.01 4.66 6.02 5 5 C5.99 5 6.98 5 8 5 C8 4.34 8 3.68 8 3 C5.69 3 3.38 3 1 3 C0.67 2.01 0.34 1.02 0 0 Z " fill="#DFEFEF" transform="translate(690,516)"/>
<path d="M0 0 C0.99 0.66 1.98 1.32 3 2 C3 2.99 3 3.98 3 5 C-0.96 5 -4.92 5 -9 5 C-8.67 3.68 -8.34 2.36 -8 1 C-5.22899606 -0.38550197 -3.0665294 -0.1877467 0 0 Z " fill="#068385" transform="translate(671,424)"/>
<path d="M0 0 C1.0209375 0.5259375 1.0209375 0.5259375 2.0625 1.0625 C6.81421925 2.57900614 11.29134972 1.31842208 16 0 C15.06788763 2.33028092 14.30996602 3.75891532 12.3125 5.3125 C8.88676201 6.33096265 6.44183926 5.86045982 3 5 C0.5625 2.9375 0.5625 2.9375 -1 1 C-0.67 0.67 -0.34 0.34 0 0 Z " fill="#DBEEED" transform="translate(661,437)"/>
<path d="M0 0 C0.33 0 0.66 0 1 0 C1.33 3.3 1.66 6.6 2 10 C2.33 9.67 2.66 9.34 3 9 C4.99958364 8.95919217 7.00045254 8.95745644 9 9 C9 9.66 9 10.32 9 11 C8.030625 11.309375 7.06125 11.61875 6.0625 11.9375 C3.15934208 12.69523342 3.15934208 12.69523342 2 14 C1.76346477 16.52596259 1.57826308 19.03107207 1.4375 21.5625 C1.39431641 22.27341797 1.35113281 22.98433594 1.30664062 23.71679688 C1.20028223 25.47761912 1.09961154 27.2387832 1 29 C0.67 29 0.34 29 0 29 C-0.75406186 19.20879681 -1.22598899 9.78905055 0 0 Z " fill="#E1E1B9" transform="translate(639,413)"/>
<path d="M0 0 C1.99954746 -0.04254356 4.00041636 -0.04080783 6 0 C6.33 0.33 6.66 0.66 7 1 C6.28 7.72 6.28 7.72 5 9 C3.33382885 9.04063832 1.66611905 9.042721 0 9 C-0.33 8.34 -0.66 7.68 -1 7 C1.475 7.495 1.475 7.495 4 8 C4 7.01 4 6.02 4 5 C2.35 4.67 0.7 4.34 -1 4 C-0.67 2.68 -0.34 1.36 0 0 Z " fill="#C3C4C8" transform="translate(568,114)"/>
<path d="M0 0 C0.99 0 1.98 0 3 0 C3 5.28 3 10.56 3 16 C2.01 16 1.02 16 0 16 C0 10.72 0 5.44 0 0 Z " fill="#E2ECD3" transform="translate(720,426)"/>
<path d="M0 0 C0.99 0 1.98 0 3 0 C3 5.28 3 10.56 3 16 C2.01 16 1.02 16 0 16 C0 10.72 0 5.44 0 0 Z " fill="#E2ECD3" transform="translate(697,426)"/>
<path d="M0 0 C1.67542976 0.28604898 3.34385343 0.61781233 5 1 C5 3.97 5 6.94 5 10 C3.02 10 1.04 10 -1 10 C-1.625 8.125 -1.625 8.125 -2 6 C-1.34 5.34 -0.68 4.68 0 4 C1.32 4 2.64 4 4 4 C3.67 3.34 3.34 2.68 3 2 C0.97536745 1.34786708 0.97536745 1.34786708 -1 1 C-0.67 0.67 -0.34 0.34 0 0 Z " fill="#60C2B2" transform="translate(1120,574)"/>
<path d="M0 0 C2.6875 0.875 2.6875 0.875 5 2 C5 2.99 5 3.98 5 5 C3.02 5 1.04 5 -1 5 C-0.67 5.66 -0.34 6.32 0 7 C1.65 7 3.3 7 5 7 C4.67 7.66 4.34 8.32 4 9 C1.625 9.125 1.625 9.125 -1 9 C-3 7 -3 7 -3.3125 4.5 C-3.209375 3.675 -3.10625 2.85 -3 2 C-2.01 1.34 -1.02 0.68 0 0 Z " fill="#ACD5CD" transform="translate(800,527)"/>
<path d="M0 0 C2.6875 0.875 2.6875 0.875 5 2 C5 2.99 5 3.98 5 5 C3.02 5 1.04 5 -1 5 C-0.67 5.66 -0.34 6.32 0 7 C1.65 7 3.3 7 5 7 C4.67 7.66 4.34 8.32 4 9 C1.625 9.125 1.625 9.125 -1 9 C-3 7 -3 7 -3.3125 4.5 C-3.209375 3.675 -3.10625 2.85 -3 2 C-2.01 1.34 -1.02 0.68 0 0 Z " fill="#ACD5CD" transform="translate(791,527)"/>
<path d="M0 0 C1.67542976 0.28604898 3.34385343 0.61781233 5 1 C5 2.98 5 4.96 5 7 C3.34385343 7.38218767 1.67542976 7.71395102 0 8 C-1 7 -1 7 -1.125 4 C-1 1 -1 1 0 0 Z " fill="#9CD0C9" transform="translate(614,506)"/>
<path d="M0 0 C0.66 0 1.32 0 2 0 C2.33 1.32 2.66 2.64 3 4 C3.99 2.68 4.98 1.36 6 0 C6.99 0.66 7.98 1.32 9 2 C9 1.34 9 0.68 9 0 C9.66 0.33 10.32 0.66 11 1 C10.34 3.31 9.68 5.62 9 8 C8.34 8 7.68 8 7 8 C6.67 7.01 6.34 6.02 6 5 C5.01 6.485 5.01 6.485 4 8 C3.34 8 2.68 8 2 8 C1.34 5.36 0.68 2.72 0 0 Z " fill="#69BEB3" transform="translate(1289,597)"/>
<path d="M0 0 C2.125 0.9375 2.125 0.9375 4 2 C4 3.65 4 5.3 4 7 C2.02 7.99 2.02 7.99 0 9 C-2 7 -2 7 -2.125 3.875 C-2.08375 2.92625 -2.0425 1.9775 -2 1 C-1.34 0.67 -0.68 0.34 0 0 Z " fill="#9BCFC9" transform="translate(606,498)"/>
<path d="M0 0 C0.86625 0.495 1.7325 0.99 2.625 1.5 C2.625 2.16 2.625 2.82 2.625 3.5 C-4.305 3.005 -4.305 3.005 -11.375 2.5 C-11.705 1.51 -12.035 0.52 -12.375 -0.5 C-7.68084205 -2.06471932 -4.5527515 -2.02344511 0 0 Z " fill="#DAECEA" transform="translate(630.375,414.5)"/>
<path d="M0 0 C2.00720923 0.28674418 4.0085944 0.61866701 6 1 C5.67 2.98 5.34 4.96 5 7 C3.33388095 7.042721 1.66617115 7.04063832 0 7 C-1 6 -1 6 -1.125 3.5 C-1 1 -1 1 0 0 Z " fill="#F0F0F0" transform="translate(796,112)"/>
<path d="M0 0 C1.9375 0.6875 1.9375 0.6875 2.9375 2.6875 C-0.0325 2.1925 -0.0325 2.1925 -3.0625 1.6875 C-3.0625 2.6775 -3.0625 3.6675 -3.0625 4.6875 C-1.0825 5.3475 0.8975 6.0075 2.9375 6.6875 C2.6075 8.3375 2.2775 9.9875 1.9375 11.6875 C-0.0425 11.6875 -2.0225 11.6875 -4.0625 11.6875 C-4.3925 11.0275 -4.7225 10.3675 -5.0625 9.6875 C-2.0925 10.1825 -2.0925 10.1825 0.9375 10.6875 C-0.30796405 6.95110784 -1.69654953 6.49993487 -5.0625 4.6875 C-4.6875 2.75 -4.6875 2.75 -4.0625 0.6875 C-2.0625 -0.3125 -2.0625 -0.3125 0 0 Z " fill="#BAE2E0" transform="translate(774.0625,524.3125)"/>
<path d="M0 0 C0 1.98 0 3.96 0 6 C-3.75 7.125 -3.75 7.125 -6 6 C-6 4.02 -6 2.04 -6 0 C-3.50907189 -1.24546405 -2.58919267 -0.7767578 0 0 Z " fill="#28D8BE" transform="translate(1205,576)"/>
<path d="M0 0 C3.4375 0.4375 3.4375 0.4375 5.375 1.8125 C6.4375 3.4375 6.4375 3.4375 6.4375 5.4375 C5.4475 5.7675 4.4575 6.0975 3.4375 6.4375 C3.1075 5.7775 2.7775 5.1175 2.4375 4.4375 C1.344375 4.4375 0.25125 4.4375 -0.875 4.4375 C-3.10416667 4.4375 -5.33333333 4.4375 -7.5625 4.4375 C-5.11203627 1.30090643 -4.03256326 0.49522707 0 0 Z " fill="#D9ECEB" transform="translate(715.5625,420.5625)"/>
<path d="M0 0 C3.4375 0.4375 3.4375 0.4375 5.375 1.8125 C6.4375 3.4375 6.4375 3.4375 6.4375 5.4375 C5.4475 5.7675 4.4575 6.0975 3.4375 6.4375 C3.1075 5.7775 2.7775 5.1175 2.4375 4.4375 C1.344375 4.4375 0.25125 4.4375 -0.875 4.4375 C-3.10416667 4.4375 -5.33333333 4.4375 -7.5625 4.4375 C-5.11203627 1.30090643 -4.03256326 0.49522707 0 0 Z " fill="#D9ECEB" transform="translate(692.5625,420.5625)"/>
<path d="M0 0 C0 5.28 0 10.56 0 16 C-0.66 16 -1.32 16 -2 16 C-2.33 12.04 -2.66 8.08 -3 4 C-3.99 4 -4.98 4 -6 4 C-2.25 0 -2.25 0 0 0 Z " fill="#D0E7DB" transform="translate(747,498)"/>
<path d="M0 0 C0.33 0.99 0.66 1.98 1 3 C-0.328125 5.04296875 -0.328125 5.04296875 -2.25 7.1875 C-2.87390625 7.90292969 -3.4978125 8.61835938 -4.140625 9.35546875 C-6 11 -6 11 -9 11 C-11.18777466 12.9375006 -11.18777466 12.9375006 -13 15 C-12.38722388 12.03824877 -11.74627478 10.61941217 -10 8 C-9.236875 7.54625 -8.47375 7.0925 -7.6875 6.625 C-4.63886885 4.78164163 -2.4399795 2.5794069 0 0 Z " fill="#E7F3F3" transform="translate(652,380)"/>
<path d="M0 0 C0.66 0 1.32 0 2 0 C2 1.65 2 3.3 2 5 C3.98 5 5.96 5 8 5 C8 3.35 8 1.7 8 0 C8.33 0 8.66 0 9 0 C9 3.63 9 7.26 9 11 C8.67 11 8.34 11 8 11 C8 9.35 8 7.7 8 6 C6.02 6 4.04 6 2 6 C2 7.65 2 9.3 2 11 C1.34 11 0.68 11 0 11 C0 7.37 0 3.74 0 0 Z " fill="#C7ECE4" transform="translate(580,525)"/>
<path d="M0 0 C0.66 0 1.32 0 2 0 C2.33 2.31 2.66 4.62 3 7 C3.66 7 4.32 7 5 7 C5.33 4.69 5.66 2.38 6 0 C6.66 0 7.32 0 8 0 C8.33 2.31 8.66 4.62 9 7 C8.34 6.34 7.68 5.68 7 5 C6.34 6.98 5.68 8.96 5 11 C4.34 11 3.68 11 3 11 C2.01 7.37 1.02 3.74 0 0 Z " fill="#68BFB2" transform="translate(1245,594)"/>
<path d="M0 0 C2.125 0.9375 2.125 0.9375 4 2 C3.67 3.65 3.34 5.3 3 7 C2.01 7.33 1.02 7.66 0 8 C-0.66 7.67 -1.32 7.34 -2 7 C-2 5.02 -2 3.04 -2 1 C-1.34 0.67 -0.68 0.34 0 0 Z " fill="#29D8BD" transform="translate(1189,575)"/>
<path d="M0 0 C0.33 0 0.66 0 1 0 C1 2.31 1 4.62 1 7 C1.99 6.67 2.98 6.34 4 6 C4.33 4.02 4.66 2.04 5 0 C5.66 0 6.32 0 7 0 C7.05399736 1.45792884 7.09279177 2.91642712 7.125 4.375 C7.14820313 5.18710937 7.17140625 5.99921875 7.1953125 6.8359375 C7 9 7 9 5 11 C2.375 11.125 2.375 11.125 0 11 C1.32 10.34 2.64 9.68 4 9 C2.68 8.67 1.36 8.34 0 8 C0 5.36 0 2.72 0 0 Z " fill="#D0E1CD" transform="translate(638,528)"/>
<path d="M0 0 C0.99 0 1.98 0 3 0 C3 2.31 3 4.62 3 7 C1.02 7 -0.96 7 -3 7 C-3 3.47190093 -2.35723489 2.53184488 0 0 Z " fill="#77BFBE" transform="translate(754,501)"/>
<path d="M0 0 C0.33 0 0.66 0 1 0 C1.71033431 5.52967941 2.30267176 10.49983036 1 16 C0.34 16 -0.32 16 -1 16 C-1.02685095 13.52076199 -1.04676547 11.0418116 -1.0625 8.5625 C-1.07506836 7.50192383 -1.07506836 7.50192383 -1.08789062 6.41992188 C-1.09653588 4.61306441 -1.05220011 2.80612397 -1 1 C-0.67 0.67 -0.34 0.34 0 0 Z " fill="#CCEFEE" transform="translate(769,498)"/>
<path d="M0 0 C1.65 0 3.3 0 5 0 C5 2.64 5 5.28 5 8 C3.35 7.67 1.7 7.34 0 7 C0 4.69 0 2.38 0 0 Z " fill="#21DABC" transform="translate(1131,575)"/>
<path d="M0 0 C1.65 0.33 3.3 0.66 5 1 C4.67 2.65 4.34 4.3 4 6 C2.35 5.67 0.7 5.34 -1 5 C-0.67 3.35 -0.34 1.7 0 0 Z " fill="#1A8D90" transform="translate(595,507)"/>
<path d="M0 0 C1.65 0.33 3.3 0.66 5 1 C4.67 2.65 4.34 4.3 4 6 C2.35 5.67 0.7 5.34 -1 5 C-0.67 3.35 -0.34 1.7 0 0 Z " fill="#1A8D90" transform="translate(583,507)"/>
<path d="M0 0 C0.33 0.66 0.66 1.32 1 2 C2.32 2 3.64 2 5 2 C5.33 1.34 5.66 0.68 6 0 C7.15941038 3.47823115 6.70820884 5.45895578 6 9 C6.66 9.33 7.32 9.66 8 10 C7.01 10 6.02 10 5 10 C5 7.69 5 5.38 5 3 C3.68 3 2.36 3 1 3 C1 4.98 1 6.96 1 9 C1.66 9.33 2.32 9.66 3 10 C2.01 10 1.02 10 0 10 C-1.125 2.25 -1.125 2.25 0 0 Z " fill="#6FBDAF" transform="translate(1132,595)"/>
<path d="M0 0 C1.65 0 3.3 0 5 0 C5 1.98 5 3.96 5 6 C3.35 6 1.7 6 0 6 C-1.125 2.25 -1.125 2.25 0 0 Z " fill="#1FDBBE" transform="translate(1200,598)"/>
<path d="M0 0 C1.32 0 2.64 0 4 0 C4 2.64 4 5.28 4 8 C2.68 7.67 1.36 7.34 0 7 C0 4.69 0 2.38 0 0 Z " fill="#1DDCBC" transform="translate(1099,575)"/>
<path d="M0 0 C0.99 0 1.98 0 3 0 C3 3.63 3 7.26 3 11 C2.34 11 1.68 11 1 11 C0.67 8.69 0.34 6.38 0 4 C-0.99 4.495 -0.99 4.495 -2 5 C-1.34 3.35 -0.68 1.7 0 0 Z " fill="#8DB2AB" transform="translate(742,525)"/>
<path d="M0 0 C0.33 0.99 0.66 1.98 1 3 C1.66 3.33 2.32 3.66 3 4 C2.34 4 1.68 4 1 4 C1 6.64 1 9.28 1 12 C1.66 12.33 2.32 12.66 3 13 C2.01 13 1.02 13 0 13 C-0.39036513 11.39950296 -0.76178619 9.79437629 -1.125 8.1875 C-1.33382813 7.29417969 -1.54265625 6.40085937 -1.7578125 5.48046875 C-2 3 -2 3 0 0 Z " fill="#71BCAF" transform="translate(1130,571)"/>
<path d="M0 0 C0.33 0.99 0.66 1.98 1 3 C1.66 3.33 2.32 3.66 3 4 C2.34 4 1.68 4 1 4 C1 6.64 1 9.28 1 12 C1.66 12.33 2.32 12.66 3 13 C2.01 13 1.02 13 0 13 C-0.39036513 11.39950296 -0.76178619 9.79437629 -1.125 8.1875 C-1.33382813 7.29417969 -1.54265625 6.40085937 -1.7578125 5.48046875 C-2 3 -2 3 0 0 Z " fill="#70BDAF" transform="translate(1098,571)"/>
<path d="M0 0 C1.98 0.495 1.98 0.495 4 1 C3.67 2.65 3.34 4.3 3 6 C1.68 5.67 0.36 5.34 -1 5 C-0.67 3.35 -0.34 1.7 0 0 Z " fill="#28D8BF" transform="translate(1283,598)"/>
<path d="M0 0 C1.98 0.495 1.98 0.495 4 1 C3.67 2.65 3.34 4.3 3 6 C1.68 5.67 0.36 5.34 -1 5 C-0.67 3.35 -0.34 1.7 0 0 Z " fill="#20DBBD" transform="translate(1179,598)"/>
<path d="M0 0 C1.98 0.495 1.98 0.495 4 1 C3.67 2.65 3.34 4.3 3 6 C1.68 5.67 0.36 5.34 -1 5 C-0.67 3.35 -0.34 1.7 0 0 Z " fill="#1FDDBA" transform="translate(1104,598)"/>
<path d="M0 0 C1.98 0.495 1.98 0.495 4 1 C3.67 2.65 3.34 4.3 3 6 C1.68 5.67 0.36 5.34 -1 5 C-0.67 3.35 -0.34 1.7 0 0 Z " fill="#1FDDB9" transform="translate(1086,598)"/>
<path d="M0 0 C1.98 0.495 1.98 0.495 4 1 C3.67 2.65 3.34 4.3 3 6 C1.68 5.67 0.36 5.34 -1 5 C-0.67 3.35 -0.34 1.7 0 0 Z " fill="#118286" transform="translate(781,529)"/>
<path d="M0 0 C1.98 0.495 1.98 0.495 4 1 C3.67 2.65 3.34 4.3 3 6 C1.68 5.67 0.36 5.34 -1 5 C-0.67 3.35 -0.34 1.7 0 0 Z " fill="#0D8287" transform="translate(621,529)"/>
<path d="M0 0 C1.98 0.495 1.98 0.495 4 1 C3.67 2.65 3.34 4.3 3 6 C1.68 5.67 0.36 5.34 -1 5 C-0.67 3.35 -0.34 1.7 0 0 Z " fill="#058793" transform="translate(758,529)"/>
<path d="M0 0 C1.65 0.33 3.3 0.66 5 1 C4.67 2.32 4.34 3.64 4 5 C2.35 4.67 0.7 4.34 -1 4 C-0.67 2.68 -0.34 1.36 0 0 Z " fill="#208F91" transform="translate(595,500)"/>
<path d="M0 0 C1.65 0.33 3.3 0.66 5 1 C4.67 2.32 4.34 3.64 4 5 C2.35 4.67 0.7 4.34 -1 4 C-0.67 2.68 -0.34 1.36 0 0 Z " fill="#208F91" transform="translate(583,500)"/>
<path d="M0 0 C0.98120464 3.05263664 0.98120464 4.94736336 0 8 C-1.32 8 -2.64 8 -4 8 C-3.6875 5.125 -3.6875 5.125 -3 2 C-2.01 1.34 -1.02 0.68 0 0 Z " fill="#E1F0F0" transform="translate(677,379)"/>
<path d="M0 0 C3 -0.3125 3 -0.3125 6 0 C8 2 8 2 8 5 C7.46375 4.67 6.9275 4.34 6.375 4 C3.4608939 2.77300796 1.13132292 2.85766714 -2 3 C-1.34 2.01 -0.68 1.02 0 0 Z " fill="#F3F9F9" transform="translate(694,360)"/>
<path d="M0 0 C1.65 0 3.3 0 5 0 C5 1.32 5 2.64 5 4 C3.02 4 1.04 4 -1 4 C-0.67 2.68 -0.34 1.36 0 0 Z " fill="#C9CAC9" transform="translate(578,115)"/>
<path d="M0 0 C0.66 0.33 1.32 0.66 2 1 C1.01 3.97 0.02 6.94 -1 10 C-1.66 10 -2.32 10 -3 10 C-3.33 7.69 -3.66 5.38 -4 3 C-3.67 3.99 -3.34 4.98 -3 6 C-2.34 6 -1.68 6 -1 6 C-0.67 4.02 -0.34 2.04 0 0 Z " fill="#6CBEB2" transform="translate(1220,574)"/>
<path d="M0 0 C0.66 0 1.32 0 2 0 C3.38232443 1.62626404 4.71937515 3.2925002 6 5 C5.01 5 4.02 5 3 5 C2.67 5.66 2.34 6.32 2 7 C1.01 6.34 0.02 5.68 -1 5 C-0.67 3.35 -0.34 1.7 0 0 Z " fill="#9ACCCC" transform="translate(548,516)"/>
<path d="M0 0 C1.32 0 2.64 0 4 0 C4 1.98 4 3.96 4 6 C2.68 5.67 1.36 5.34 0 5 C0 3.35 0 1.7 0 0 Z " fill="#078587" transform="translate(808,529)"/>
<path d="M0 0 C1.65 0 3.3 0 5 0 C4.01 1.485 4.01 1.485 3 3 C2.60986284 4.9896995 2.26797351 6.99019869 2 9 C1.34 9 0.68 9 0 9 C0 6.03 0 3.06 0 0 Z " fill="#B3B3C5" transform="translate(597,114)"/>
<path d="M0 0 C0.66 0 1.32 0 2 0 C2 1.32 2 2.64 2 4 C3.32 4.33 4.64 4.66 6 5 C4.68 5.33 3.36 5.66 2 6 C1.67 8.31 1.34 10.62 1 13 C0.67 13 0.34 13 0 13 C0 8.71 0 4.42 0 0 Z " fill="#A295A9" transform="translate(613,110)"/>
<path d="M0 0 C0.99 0 1.98 0 3 0 C3 1.98 3 3.96 3 6 C1.68 5.67 0.36 5.34 -1 5 C-0.67 3.35 -0.34 1.7 0 0 Z " fill="#28D8BF" transform="translate(1274,598)"/>
<path d="M0 0 C0.99 0 1.98 0 3 0 C3 1.98 3 3.96 3 6 C1.68 5.67 0.36 5.34 -1 5 C-0.67 3.35 -0.34 1.7 0 0 Z " fill="#1FDBBC" transform="translate(1155,598)"/>
<path d="M0 0 C0.66 0 1.32 0 2 0 C2.33 1.98 2.66 3.96 3 6 C3.66 6 4.32 6 5 6 C5.33 5.34 5.66 4.68 6 4 C5.67 5.98 5.34 7.96 5 10 C4.34 10 3.68 10 3 10 C2.01 6.7 1.02 3.4 0 0 Z " fill="#6EBDB1" transform="translate(1208,574)"/>
<path d="M0 0 C0.66 0.33 1.32 0.66 2 1 C1.67 3.31 1.34 5.62 1 8 C-0.32 7.34 -1.64 6.68 -3 6 C-2.67 4.68 -2.34 3.36 -2 2 C-1.34 2 -0.68 2 0 2 C0 1.34 0 0.68 0 0 Z " fill="#C2E0E0" transform="translate(702,363)"/>
<path d="M0 0 C1.2065625 0.0309375 1.2065625 0.0309375 2.4375 0.0625 C2.7675 0.7225 3.0975 1.3825 3.4375 2.0625 C2.509375 2.2171875 2.509375 2.2171875 1.5625 2.375 C-0.92776484 2.93775373 -0.92776484 2.93775373 -2.5625 6.0625 C-3.2225 6.0625 -3.8825 6.0625 -4.5625 6.0625 C-3.48963568 0.08511307 -3.48963568 0.08511307 0 0 Z " fill="#24D9BD" transform="translate(1222.5625,597.9375)"/>
<path d="M0 0 C0.33 0.66 0.66 1.32 1 2 C1.66 2 2.32 2 3 2 C2.67 2.99 2.34 3.98 2 5 C1.01 5 0.02 5 -1 5 C-3.00309329 5.31421071 -5.00371336 5.6451046 -7 6 C-6.21625 5.38125 -5.4325 4.7625 -4.625 4.125 C-2.03162353 2.10141339 -2.03162353 2.10141339 0 0 Z " fill="#C5E6E7" transform="translate(742,437)"/>
<path d="M0 0 C1.74627478 2.61941217 2.38722388 4.03824877 3 7 C1.35 7 -0.3 7 -2 7 C-1.34 4.69 -0.68 2.38 0 0 Z " fill="#21DBBB" transform="translate(1079,572)"/>
<path d="M0 0 C0.33 1.32 0.66 2.64 1 4 C-0.98 4 -2.96 4 -5 4 C-5 3.01 -5 2.02 -5 1 C-3 0 -3 0 0 0 Z " fill="#49CBB6" transform="translate(1141,574)"/>
<path d="M0 0 C0.33 0 0.66 0 1 0 C1.04254356 1.99954746 1.04080783 4.00041636 1 6 C0 7 0 7 -3.0625 7.0625 C-4.031875 7.041875 -5.00125 7.02125 -6 7 C-6.33 6.34 -6.66 5.68 -7 5 C-5.02 4.67 -3.04 4.34 -1 4 C-0.67 2.68 -0.34 1.36 0 0 Z " fill="#AFE3E7" transform="translate(735,507)"/>
<path d="M0 0 C0.66 0.33 1.32 0.66 2 1 C1.34 3.31 0.68 5.62 0 8 C-0.66 8 -1.32 8 -2 8 C-2 6.02 -2 4.04 -2 2 C-1.34 2 -0.68 2 0 2 C0 1.34 0 0.68 0 0 Z " fill="#56C6B7" transform="translate(1298,597)"/>
<path d="M0 0 C0.66 0 1.32 0 2 0 C2 0.99 2 1.98 2 3 C2.99 3.33 3.98 3.66 5 4 C5 4.66 5 5.32 5 6 C3.68 5.67 2.36 5.34 1 5 C0.67 5.66 0.34 6.32 0 7 C0 4.69 0 2.38 0 0 Z " fill="#1EDCBC" transform="translate(1160,598)"/>
<path d="M0 0 C0.66 0.33 1.32 0.66 2 1 C1.01 4.3 0.02 7.6 -1 11 C-1.66 11 -2.32 11 -3 11 C-3 9.68 -3 8.36 -3 7 C-2.34 7 -1.68 7 -1 7 C-0.67 4.69 -0.34 2.38 0 0 Z " fill="#6ABEB2" transform="translate(1257,594)"/>
<path d="M0 0 C0.33 1.32 0.66 2.64 1 4 C-2 6 -2 6 -6 6 C-6 5.34 -6 4.68 -6 4 C-4.02 3.34 -2.04 2.68 0 2 C0 1.34 0 0.68 0 0 Z " fill="#F4F9F9" transform="translate(701,368)"/>
<path d="M0 0 C0.66 0.33 1.32 0.66 2 1 C1.67 2.32 1.34 3.64 1 5 C0.34 5 -0.32 5 -1 5 C-1.33 6.65 -1.66 8.3 -2 10 C-2.33 10 -2.66 10 -3 10 C-3.36923077 3.47692308 -3.36923077 3.47692308 -1.5 1.0625 C-1.005 0.711875 -0.51 0.36125 0 0 Z " fill="#C3E1E1" transform="translate(692,360)"/>
<path d="M0 0 C1.98 0 3.96 0 6 0 C6.33 0.99 6.66 1.98 7 3 C5.35 3.33 3.7 3.66 2 4 C1.34 2.68 0.68 1.36 0 0 Z " fill="#25D9BB" transform="translate(1117,575)"/>
<path d="M0 0 C0.33 0.99 0.66 1.98 1 3 C1.66 3.33 2.32 3.66 3 4 C2.34 4 1.68 4 1 4 C1 5.98 1 7.96 1 10 C1.66 10.33 2.32 10.66 3 11 C2.01 11 1.02 11 0 11 C0 8.69 0 6.38 0 4 C-0.66 3.67 -1.32 3.34 -2 3 C-1.34 3 -0.68 3 0 3 C0 2.01 0 1.02 0 0 Z " fill="#EAEAD7" transform="translate(633,525)"/>
<path d="M0 0 C1.65 0 3.3 0 5 0 C5.66 1.32 6.32 2.64 7 4 C6.01 4.33 5.02 4.66 4 5 C2.68 3.35 1.36 1.7 0 0 Z " fill="#ECF7F2" transform="translate(715,422)"/>
<path d="M0 0 C1.65 0 3.3 0 5 0 C5.66 1.32 6.32 2.64 7 4 C6.01 4.33 5.02 4.66 4 5 C2.68 3.35 1.36 1.7 0 0 Z " fill="#ECF7F2" transform="translate(692,422)"/>
</svg>
